# xmcd
#
# Track frame offsets: 
#        200
#        17265
#        30695
#        48310
#        64675
#        79960
#        92582
#        105182
#        117930
#        130000
#        146342
#        162675
#        178212
#        191577
#        204125
#        221307
#        234045
#        248995
#
# Disc length: 3569 seconds
#
# Revision: 10
# Processed by: cddbd v1.5.2PL0 Copyright (c) Steve Scherf et al.
# Submitted via: ExactAudioCopyFreeDBPlugin 1.0
#
DISCID=e30def12
DTITLE=Various Artist - Phil Spector:  Back to Mono (1958-1969) [box 
DTITLE=set]
DYEAR=1991
DGENRE=Rhythm and Blues
TTITLE0=The Righteous Brothers - You've Lost That Lovin' Feelin'
TTITLE1=The Ronettes - Born to Be Together
TTITLE2=The Righteous Brothers - Just Once in My Life
TTITLE3=The Righteous Brothers - Unchained Melody
TTITLE4=The Ronettes - Is This What I Get for Loving You?
TTITLE5=Darlene Love - Long Way to Be Happy
TTITLE6=The Righteous Brothers - (I Love You) For Sentimental Reasons
TTITLE7=The Righteous Brothers - Ebb Tide
TTITLE8=The Modern Folk Quartet - This Could Be the Night
TTITLE9=The Ronettes - Paradise
TTITLE10=Ike and Tina Turner - River Deep, Mountain High
TTITLE11=Ike and Tina Turner - I'll Never Need More Than This
TTITLE12=Ike and Tina Turner - A Love Like Yours (Don't Come Knockin' Ev
TTITLE12=eryday)
TTITLE13=Ike and Tina Turner - Save the Last Dance for Me
TTITLE14=The Ronettes - I Wish I Never Saw the Sunshine
TTITLE15=The Ronettes - You Came, You Saw, You Conquered
TTITLE16=Sonny Charles and The Checkmates - Black Pearl
TTITLE17=The Checkmates - Love is All I Have to Give
EXTD=
EXTT0=
EXTT1=
EXTT2=
EXTT3=
EXTT4=
EXTT5=
EXTT6=
EXTT7=
EXTT8=
EXTT9=
EXTT10=
EXTT11=
EXTT12=
EXTT13=
EXTT14=
EXTT15=
EXTT16=
EXTT17=
PLAYORDER=
